Coordinates
version=1
nRows=5
nColumns=40
inDegrees=yes

Units are S.I. units (second, meters, Newtons, ...)
Angles are in degrees.

endheader
time	pelvis_tilt	pelvis_list	pelvis_rotation	pelvis_tx	pelvis_ty	pelvis_tz	hip_flexion_r	hip_adduction_r	hip_rotation_r	knee_angle_r	knee_angle_r_beta	ankle_angle_r	subtalar_angle_r	mtp_angle_r	hip_flexion_l	hip_adduction_l	hip_rotation_l	knee_angle_l	knee_angle_l_beta	ankle_angle_l	subtalar_angle_l	mtp_angle_l	lumbar_extension	lumbar_bending	lumbar_rotation	arm_flex_r	arm_add_r	arm_rot_r	elbow_flex_r	pro_sup_r	wrist_flex_r	wrist_dev_r	arm_flex_l	arm_add_l	arm_rot_l	elbow_flex_l	pro_sup_l	wrist_flex_l	wrist_dev_l
     33.53714286	     -3.15153992	     -3.99603201	     -2.64022783	      0.95060010	      0.93640869	      0.43743865	     32.51098559	     -3.35724356	     -6.52978588	     49.90224889	     49.90224889	      3.39242091	    -10.70588141	     -1.11293608	      9.01091799	     -3.21597104	     -8.76270347	     17.51353496	     17.51353496	     13.91985883	    -10.65127203	     -0.19899630	     -9.49716333	      6.36736095	      3.31968876	     -4.75172237	    -11.38344376	     -4.52070664	     22.33600427	     46.69838412	      0.00000000	      0.00000000	     25.50654291	    -14.50602652	     -5.26504140	     53.84572530	     46.92308099	      0.00000000	      0.00000000
     33.54928571	     -3.26461882	     -4.07602487	     -2.78930329	      0.95002636	      0.93627342	      0.43761749	     32.28125117	     -3.06894401	     -6.92971786	     45.69027036	     45.69027036	      2.98577091	     -9.90137293	     -2.19674052	      8.37313315	     -3.27627990	     -8.96411612	     17.01490703	     17.01490703	     14.00537784	    -10.44216733	     -0.73973308	     -9.52903880	      6.52990788	      2.87003808	     -5.90712259	    -11.38929646	     -5.45923401	     21.77168410	     46.82310057	      0.00000000	      0.00000000	     25.50205745	    -15.08157447	     -6.18697487	     56.87655517	     47.03459851	      0.00000000	      0.00000000
     33.56142857	     -3.50567650	     -4.14309945	     -2.93447444	      0.94937839	      0.93588781	      0.43790436	     32.10357747	     -2.73984023	     -7.32549457	     41.36346274	     41.36346274	      2.99804209	     -8.64595067	     -1.71870514	      7.92666010	     -3.32588448	     -9.07080023	     16.61365314	     16.61365314	     14.23511087	    -10.30353566	     -0.82927686	     -9.35614655	      6.72986668	      2.82361128	     -7.25491286	    -11.46355055	     -5.53340716	     21.28631337	     46.83970799	      0.00000000	      0.00000000	     26.39337363	    -15.44730383	     -6.40026609	     57.74982821	     47.06934303	      0.00000000	      0.00000000
     33.57357143	     -3.64118261	     -4.20541025	     -3.10754740	      0.94885287	      0.93552329	      0.43835942	     31.65158988	     -2.37983614	     -7.80918630	     36.84253179	     36.84253179	      2.89419148	     -7.04024817	     -1.23265103	      7.33890240	     -3.37878569	     -9.24306339	     16.18593219	     16.18593219	     14.49016180	    -10.11020993	     -0.98259402	     -9.34609020	      6.84009901	      2.93620368	     -8.61270952	    -11.58927553	     -5.64704158	     20.89626607	     46.85590474	      0.00000000	      0.00000000	     27.19135535	    -15.62926244	     -6.60623332	     59.00418684	     47.10810527	      0.00000000	      0.00000000
     33.58571429	     -3.74670218	     -4.25026413	     -3.24848113	      0.94839942	      0.93508305	      0.43884788	     31.03461106	     -2.02521146	     -8.40272138	     32.24010401	     32.24010401	      2.67824770	     -5.16106753	     -0.69920398	      6.73279593	     -3.41958503	     -9.44966908	     15.78888967	     15.78888967	     14.71764908	     -9.86836618	     -1.19835280	     -9.39731697	      6.96503349	      3.08532579	     -9.94788460	    -11.72834952	     -5.81343295	     20.67398175	     46.86969739	      0.00000000	      0.00000000	     27.82873767	    -15.76515962	     -6.81356172	     60.53860222	     47.15001702	      0.00000000	      0.00000000
